<?xml version="1.0" standalone="no"?>
<!DOCTYPE svg PUBLIC "-//W3C//DTD SVG 1.1//EN" "http://www.w3.org/Graphics/SVG/1.1/DTD/svg11.dtd" >
<svg xmlns="http://www.w3.org/2000/svg">
<metadata>Generated by IcoMoon</metadata>
<defs>
<font id="icomoon" horiz-adv-x="1024">
<font-face units-per-em="1024" ascent="960" descent="-64" />
<missing-glyph horiz-adv-x="1024" />
<glyph unicode="&#x20;" horiz-adv-x="512" d="" />
<glyph unicode="&#xe900;" glyph-name="act-level" horiz-adv-x="745" d="M488.262 751.476c51.2 0 93.091 41.891 93.091 93.091s-41.891 93.091-93.091 93.091c-51.2 0-93.091-41.891-93.091-93.091s41.891-93.091 93.091-93.091zM340.713 192.931l26.531 116.364 97.745-93.091v-232.727c0-25.6 20.945-46.545 46.545-46.545s46.545 20.945 46.545 46.545v262.516c0 25.6-10.24 49.804-28.858 67.491l-68.887 65.629 27.927 139.636c49.804-57.716 121.949-99.142 202.938-112.175 27.927-4.189 53.062 18.153 53.062 46.545 0 22.807-16.756 41.891-39.564 45.615-70.749 11.636-129.396 53.527-160.582 108.451l-46.545 74.473c-18.618 27.927-46.545 46.545-79.127 46.545-13.964 0-23.273-4.655-37.236-4.655l-185.251-78.196c-34.444-14.895-56.785-48.407-56.785-86.109v-110.313c0-25.6 20.945-46.545 46.545-46.545s46.545 20.945 46.545 46.545v111.709l83.782 32.582-74.473-377.018-182.458 37.236c-25.135 5.12-49.804-11.171-54.924-36.305v-1.862c-5.12-25.135 11.171-49.804 36.305-54.924l191.302-38.167c49.338-9.775 97.745 21.411 108.916 70.749z" />
<glyph unicode="&#xe901;" glyph-name="add-to-cart" horiz-adv-x="970" d="M533.558 571.958c26.678 0 48.505 21.827 48.505 48.505v97.011h97.011c26.678 0 48.505 21.827 48.505 48.505s-21.827 48.505-48.505 48.505h-97.011v97.011c0 26.678-21.827 48.505-48.505 48.505s-48.505-21.827-48.505-48.505v-97.011h-97.011c-26.678 0-48.505-21.827-48.505-48.505s21.827-48.505 48.505-48.505h97.011v-97.011c0-26.678 21.827-48.505 48.505-48.505zM291.032 135.411c-53.356 0-96.525-43.655-96.525-97.011s43.17-97.011 96.525-97.011c53.356 0 97.011 43.655 97.011 97.011s-43.655 97.011-97.011 97.011zM776.084 135.411c-53.356 0-96.525-43.655-96.525-97.011s43.17-97.011 96.525-97.011c53.356 0 97.011 43.655 97.011 97.011s-43.655 97.011-97.011 97.011zM344.387 377.937h361.364c36.379 0 68.392 19.887 84.884 49.96l163.948 297.337c13.096 23.283 4.365 52.871-18.917 65.967-23.283 12.611-52.871 4.365-65.482-18.917l-164.433-297.337h-340.507l-193.536 408.899c-7.761 16.977-25.223 27.648-43.655 27.648h-79.549c-26.678 0-48.505-21.827-48.505-48.505s21.827-48.505 48.505-48.505h48.505l174.619-368.155-65.482-118.353c-35.409-64.997 11.156-144.061 84.884-144.061h533.558c26.678 0 48.505 21.827 48.505 48.505s-21.827 48.505-48.505 48.505h-533.558l53.356 97.011z" />
<glyph unicode="&#xe902;" glyph-name="arrival-flight" horiz-adv-x="1078" d="M997.053 43.789h-916.211c-29.642 0-53.895-24.253-53.895-53.895s24.253-53.895 53.895-53.895h916.211c29.642 0 53.895 24.253 53.895 53.895s-24.253 53.895-53.895 53.895zM81.381 442.072l853.154-228.514c43.116-11.318 87.309 14.013 99.166 57.128 11.318 43.116-14.013 87.309-57.128 99.166l-286.181 76.531-139.048 455.411c-5.928 19.402-21.019 33.954-40.421 39.343-36.648 9.701-72.758-17.785-72.758-56.051v-370.796l-268.396 71.141-40.421 100.244c-6.467 15.629-19.402 27.486-36.109 31.798l-17.785 4.851c-17.246 4.851-33.954-8.084-33.954-25.869v-202.105c0-24.792 16.168-45.811 39.882-52.278z" />
<glyph unicode="&#xe903;" glyph-name="arrow-left" horiz-adv-x="1229" d="M206.46 386.412l387.552-341.046c21.228-18.681 23.293-51.033 4.612-72.261s-51.033-23.293-72.261-4.612l-489.284 430.57c-10.728 9.385-17.503 23.176-17.503 38.549s6.775 29.164 17.503 38.549l489.284 430.57c21.228 18.681 53.58 16.616 72.261-4.612s16.616-53.58-4.612-72.261l-387.552-341.046h951.564c28.277 0 51.2-22.923 51.2-51.2s-22.923-51.2-51.2-51.2h-951.564z" />
<glyph unicode="&#xe904;" glyph-name="arrow-next" horiz-adv-x="1229" d="M1191.639 497.008c10.775-9.386 17.584-23.208 17.584-38.62s-6.81-29.233-17.584-38.62l-489.203-430.499c-21.228-18.681-53.58-16.616-72.261 4.612s-16.616 53.58 4.612 72.261l387.552 341.046h-951.563c-28.277 0-51.2 22.923-51.2 51.2s22.923 51.2 51.2 51.2h951.563l-387.552 341.046c-21.228 18.681-23.293 51.033-4.612 72.261s51.033 23.293 72.261 4.612l489.203-430.499z" />
<glyph unicode="&#xe905;" glyph-name="burger-icon" horiz-adv-x="1877" d="M85.333 960h1706.667c47.128 0 85.333-38.205 85.333-85.333s-38.205-85.333-85.333-85.333h-1706.667c-47.128 0-85.333 38.205-85.333 85.333s38.205 85.333 85.333 85.333zM85.333 533.333h1706.667c47.128 0 85.333-38.205 85.333-85.333s-38.205-85.333-85.333-85.333h-1706.667c-47.128 0-85.333 38.205-85.333 85.333s38.205 85.333 85.333 85.333zM85.333 106.667h1706.667c47.128 0 85.333-38.205 85.333-85.333s-38.205-85.333-85.333-85.333h-1706.667c-47.128 0-85.333 38.205-85.333 85.333s38.205 85.333 85.333 85.333z" />
<glyph unicode="&#xe906;" glyph-name="cart" d="M307.2 140.8c-56.32 0-101.888-46.080-101.888-102.4s45.568-102.4 101.888-102.4c56.32 0 102.4 46.080 102.4 102.4s-46.080 102.4-102.4 102.4zM819.2 140.8c-56.32 0-101.888-46.080-101.888-102.4s45.568-102.4 101.888-102.4c56.32 0 102.4 46.080 102.4 102.4s-46.080 102.4-102.4 102.4zM363.52 396.8h381.44c38.4 0 72.192 20.992 89.6 52.736l173.056 313.856c13.824 24.576 4.608 55.808-19.968 69.632-24.576 13.312-55.808 4.608-69.12-19.968l-173.568-313.856h-359.424l-204.288 431.616c-8.192 17.92-26.624 29.184-46.080 29.184h-83.968c-28.16 0-51.2-23.040-51.2-51.2s23.040-51.2 51.2-51.2h51.2l184.32-388.608-69.12-124.928c-37.376-68.608 11.776-152.064 89.6-152.064h563.2c28.16 0 51.2 23.040 51.2 51.2s-23.040 51.2-51.2 51.2h-563.2l56.32 102.4z" />
<glyph unicode="&#xe907;" glyph-name="CheckOff" d="M853.333 49.778h-682.667c-31.289 0-56.889 25.6-56.889 56.889v682.667c0 31.289 25.6 56.889 56.889 56.889h682.667c31.289 0 56.889-25.6 56.889-56.889v-682.667c0-31.289-25.6-56.889-56.889-56.889zM910.222 960h-796.444c-62.578 0-113.778-51.2-113.778-113.778v-796.444c0-62.578 51.2-113.778 113.778-113.778h796.444c62.578 0 113.778 51.2 113.778 113.778v796.444c0 62.578-51.2 113.778-113.778 113.778z" />
<glyph unicode="&#xe908;" glyph-name="CheckOn" d="M910.222 960h-796.444c-62.578 0-113.778-51.2-113.778-113.778v-796.444c0-62.578 51.2-113.778 113.778-113.778h796.444c62.578 0 113.778 51.2 113.778 113.778v796.444c0 62.578-51.2 113.778-113.778 113.778zM438.613 203.947c-22.187-22.187-58.027-22.187-80.213 0l-204.231 204.231c-22.187 22.187-22.187 58.027 0 80.213s58.027 22.187 80.213 0l163.84-163.84 391.396 391.396c22.187 22.187 58.027 22.187 80.213 0s22.187-58.027 0-80.213l-431.218-431.787z" />
<glyph unicode="&#xe909;" glyph-name="close" d="M512 528.453l362.039 362.039c22.216 22.216 58.237 22.217 80.453 0s22.216-58.237 0-80.453l-362.039-362.039 362.039-362.039c22.217-22.217 22.216-58.237 0-80.453s-58.237-22.217-80.453 0l-362.039 362.039-362.039-362.039c-22.216-22.216-58.237-22.217-80.453 0s-22.216 58.237 0 80.453l362.039 362.039-362.039 362.039c-22.217 22.217-22.216 58.237 0 80.453s58.237 22.217 80.453 0l362.039-362.039z" />
<glyph unicode="&#xe90a;" glyph-name="delete-item" horiz-adv-x="819" d="M58.514 49.778c0-62.578 52.663-113.778 117.029-113.778h468.114c64.366 0 117.029 51.2 117.029 113.778v568.889c0 62.578-52.663 113.778-117.029 113.778h-468.114c-64.366 0-117.029-51.2-117.029-113.778v-568.889zM760.686 903.111h-146.286l-41.545 40.391c-10.533 10.24-25.746 16.498-40.96 16.498h-244.59c-15.214 0-30.427-6.258-40.96-16.498l-41.545-40.391h-146.286c-32.183 0-58.514-25.6-58.514-56.889s26.331-56.889 58.514-56.889h702.171c32.183 0 58.514 25.6 58.514 56.889s-26.331 56.889-58.514 56.889z" />
<glyph unicode="&#xe90b;" glyph-name="departure-flight" horiz-adv-x="1195" d="M1052.444 49.778h-967.111c-31.289 0-56.889-25.6-56.889-56.889s25.6-56.889 56.889-56.889h967.111c31.289 0 56.889 25.6 56.889 56.889s-25.6 56.889-56.889 56.889zM1141.76 582.258c-12.516 45.511-59.164 72.249-104.676 60.302l-302.080-80.782-367.502 342.471c-15.36 14.791-37.547 19.911-58.027 14.222-38.684-10.809-56.889-55.182-36.978-89.884l195.698-339.058-282.738-75.662-89.316 70.542c-14.222 10.809-32.427 14.791-50.062 10.24l-18.773-5.12c-18.204-4.551-26.738-25.6-17.067-41.529l106.951-184.889c13.084-22.187 39.253-32.996 63.716-26.738l899.982 241.209c45.511 12.516 72.818 59.164 60.871 104.676z" />
<glyph unicode="&#xe90c;" glyph-name="download-receipt" horiz-adv-x="843" d="M698.127 598.588h-95.774v301.176c0 33.129-27.106 60.235-60.235 60.235h-240.941c-33.129 0-60.235-27.106-60.235-60.235v-301.176h-95.774c-53.609 0-80.715-65.054-42.767-103.002l276.48-276.48c23.492-23.492 61.44-23.492 84.932 0l276.48 276.48c37.948 37.948 11.445 103.002-42.165 103.002zM0-3.765c0-33.129 27.106-60.235 60.235-60.235h722.824c33.129 0 60.235 27.106 60.235 60.235s-27.106 60.235-60.235 60.235h-722.824c-33.129 0-60.235-27.106-60.235-60.235z" />
<glyph unicode="&#xe90d;" glyph-name="dropdown-less" horiz-adv-x="1638" d="M1494.535 369.664l-530.432 530.432c-79.872 79.872-208.896 79.872-288.768 0l-530.432-530.432c-129.024-129.024-36.864-350.208 145.408-350.208h1060.864c182.272 0 272.384 221.184 143.36 350.208z" />
<glyph unicode="&#xe90e;" glyph-name="dropdown-more" horiz-adv-x="1638" d="M145.408 609.792l530.432-530.432c79.872-79.872 208.896-79.872 288.768 0l530.432 530.432c129.024 129.024 36.864 350.208-145.408 350.208h-1060.864c-182.272 0-272.384-221.184-143.36-350.208z" />
<glyph unicode="&#xe90f;" glyph-name="duration" horiz-adv-x="878" d="M536.381 960h-195.048c-26.819 0-48.762-21.943-48.762-48.762s21.943-48.762 48.762-48.762h195.048c26.819 0 48.762 21.943 48.762 48.762s-21.943 48.762-48.762 48.762zM438.857 326.095c26.819 0 48.762 21.943 48.762 48.762v195.048c0 26.819-21.943 48.762-48.762 48.762s-48.762-21.943-48.762-48.762v-195.048c0-26.819 21.943-48.762 48.762-48.762zM781.653 648.411l36.571 36.571c18.53 18.53 19.017 49.25 0 68.267 0 0-0.488 0.488-0.488 0.488-19.017 19.017-49.25 18.53-68.267 0l-36.571-36.571c-75.581 60.465-170.667 96.549-274.042 96.549-234.057 0-433.006-193.097-438.857-427.154-6.339-247.71 192.122-450.56 438.857-450.56 242.834 0 438.857 196.51 438.857 438.857 0 103.375-36.084 198.461-96.061 273.554zM438.857 33.524c-188.709 0-341.333 152.625-341.333 341.333s152.625 341.333 341.333 341.333c188.709 0 341.333-152.625 341.333-341.333s-152.625-341.333-341.333-341.333z" />
<glyph unicode="&#xe910;" glyph-name="extras" d="M972.8 773.818h-181.527v139.636c0 25.6-20.945 46.545-46.545 46.545s-46.545-20.945-46.545-46.545v-139.636h-181.527c-27.462 0-48.873-23.738-46.545-51.2l5.585-56.32c171.287-39.564 315.578-161.047 315.578-357.935l0.931-372.364h79.127c39.098 0 71.215 30.255 75.869 68.422l71.68 718.196c2.793 27.462-18.618 51.2-46.080 51.2zM651.636 29.091h-605.091c-25.6 0-46.545-20.945-46.545-46.545s20.945-46.545 46.545-46.545h605.091c25.6 0 46.545 20.945 46.545 46.545s-20.945 46.545-46.545 46.545zM51.2 308.364h595.782c28.858 0 51.665 26.065 46.080 53.993-30.255 150.342-187.113 225.745-343.971 225.745s-313.251-75.404-343.971-225.745c-5.585-27.927 17.687-53.993 46.080-53.993zM651.636 215.273h-605.091c-25.6 0-46.545-20.945-46.545-46.545s20.945-46.545 46.545-46.545h605.091c25.6 0 46.545 20.945 46.545 46.545s-20.945 46.545-46.545 46.545z" />
<glyph unicode="&#xe911;" glyph-name="facebook" d="M1024 850.284v-804.57c0-30.476-10.666-56.381-32-77.714s-47.238-32-77.714-32h-194.286v404.57h137.143l20.571 155.428h-157.714v98.285c0 24.381 4.571 42.667 13.714 54.857 12.191 13.714 32.762 20.571 61.714 20.571h82.286v137.143c-32 4.571-71.619 6.857-118.857 6.857-60.952 0-109.333-17.905-145.143-53.714s-53.714-85.714-53.714-149.714v-114.285h-139.429v-155.428h139.429v-404.57h-450.286c-30.476 0-56.381 10.667-77.714 32s-32 47.238-32 77.714v804.57c0 30.476 10.666 56.381 32 77.714s47.238 32 77.714 32h804.571c30.476 0 56.381-10.667 77.714-32s32-47.238 32-77.714z" />
<glyph unicode="&#xe912;" glyph-name="hotel" horiz-adv-x="1502" d="M409.6 413.867c113.323 0 204.8 91.477 204.8 204.8s-91.477 204.8-204.8 204.8c-113.323 0-204.8-91.477-204.8-204.8s91.477-204.8 204.8-204.8zM1228.8 823.467h-409.6c-75.093 0-136.533-61.44-136.533-136.533v-341.333h-546.133v546.133c0 37.547-30.72 68.267-68.267 68.267s-68.267-30.72-68.267-68.267v-887.467c0-37.547 30.72-68.267 68.267-68.267s68.267 30.72 68.267 68.267v136.533h1228.8v-136.533c0-37.547 30.72-68.267 68.267-68.267s68.267 30.72 68.267 68.267v546.133c0 150.869-122.197 273.067-273.067 273.067z" />
<glyph unicode="&#xe913;" glyph-name="instagram" d="M511.999 710.855c47.239 0 91.047-11.81 131.428-35.428s72.381-55.619 96-96c23.619-40.381 35.428-84.19 35.428-131.428s-11.809-91.047-35.428-131.428c-23.619-40.381-55.619-72.381-96-96s-84.19-35.428-131.428-35.428c-47.238 0-91.047 11.81-131.428 35.428s-72.381 55.619-95.999 96c-23.619 40.381-35.429 84.19-35.429 131.428s11.81 91.047 35.429 131.428c23.619 40.381 55.619 72.381 95.999 96s84.19 35.428 131.428 35.428zM511.999 276.571c47.239 0 87.619 16.762 121.143 50.286s50.286 73.905 50.286 121.143c0 47.238-16.762 87.619-50.286 121.143s-73.904 50.286-121.143 50.286c-47.238 0-87.619-16.762-121.142-50.286s-50.286-73.905-50.286-121.143c0-47.238 16.761-87.619 50.286-121.143s73.904-50.286 121.142-50.286zM847.998 722.284c-1.524-16.762-8-31.238-19.428-43.428s-25.524-18.286-42.286-18.286c-16.761 0-31.238 6.095-43.428 18.286s-18.286 26.667-18.286 43.428c0 16.762 6.095 31.238 18.286 43.428s26.666 18.286 43.428 18.286c16.762 0 31.239-6.095 43.429-18.286s18.286-26.667 18.286-43.428zM1021.714 660.57c1.524-42.667 2.286-113.524 2.286-212.571s-1.142-170.285-3.429-213.714c-2.285-43.428-8.762-81.143-19.428-113.143-13.714-38.095-34.667-71.238-62.858-99.428s-61.333-49.143-99.428-62.857c-32-10.667-69.715-17.143-113.142-19.429-43.429-2.286-114.667-3.429-213.715-3.429s-170.285 1.143-213.715 3.429c-43.428 2.286-81.142 9.524-113.142 21.714-38.095 12.19-71.238 32.381-99.428 60.571s-49.143 61.333-62.858 99.428c-10.666 32-17.143 69.714-19.428 113.143-2.286 43.428-3.429 114.666-3.429 213.714s1.142 170.285 3.429 213.714c2.285 43.428 8.762 81.143 19.428 113.143 13.714 38.095 34.667 71.238 62.858 99.428s61.333 49.143 99.428 62.857c32 10.667 69.715 17.143 113.142 19.429 43.429 2.286 114.667 3.429 213.715 3.429s170.285-1.143 213.715-3.429c43.428-2.286 81.142-8.762 113.142-19.429 38.095-13.714 71.238-34.667 99.428-62.857s49.143-61.333 62.858-99.428c10.666-32 17.524-70.095 20.571-114.285zM911.998 146.285c9.143 25.905 15.238 67.047 18.286 123.428 1.524 33.524 2.286 80.762 2.286 141.714v73.143c0 62.476-0.762 109.714-2.286 141.714-3.048 57.905-9.143 99.047-18.286 123.428-18.286 47.238-51.047 80-98.286 98.285-24.381 9.143-65.524 15.238-123.428 18.286-33.524 1.524-80.762 2.286-141.714 2.286h-73.143c-60.952 0-108.19-0.762-141.714-2.286-56.381-3.048-97.524-9.143-123.429-18.286-47.238-18.286-79.999-51.047-98.285-98.285-9.143-24.381-15.239-65.524-18.286-123.428-1.524-33.524-2.286-80.762-2.286-141.714v-73.143c0-60.952 0.761-108.19 2.286-141.714 3.047-56.381 9.143-97.524 18.286-123.428 19.809-47.238 52.571-80 98.285-98.285 25.905-9.143 67.048-15.238 123.429-18.286 33.524-1.524 80.761-2.286 141.714-2.286h73.143c62.476 0 109.714 0.762 141.714 2.286 57.904 3.048 99.047 9.143 123.428 18.286 47.239 19.809 80 52.571 98.286 98.285z" />
<glyph unicode="&#xe914;" glyph-name="mail" horiz-adv-x="1280" d="M1152 960h-1024c-70.4 0-127.36-57.6-127.36-128l-0.64-768c0-70.4 57.6-128 128-128h1024c70.4 0 128 57.6 128 128v768c0 70.4-57.6 128-128 128zM1088 64h-896c-35.2 0-64 28.8-64 64v576l444.16-277.76c41.6-26.24 94.080-26.24 135.68 0l444.16 277.76v-576c0-35.2-28.8-64-64-64zM640 512l-512 320h1024l-512-320z" />
<glyph unicode="&#xe915;" glyph-name="phone" d="M923.668 261.702l-144.789 16.531c-34.772 3.99-68.974-7.981-93.486-32.492l-104.887-104.887c-161.32 82.086-293.569 213.765-375.654 375.656l105.457 105.457c24.512 24.512 36.482 58.714 32.492 93.486l-16.531 143.65c-6.84 57.574-55.294 100.897-113.437 100.897h-98.616c-64.414 0-117.997-53.584-114.007-117.998 30.212-486.814 419.547-875.58 905.788-905.792 64.414-3.99 117.997 49.593 117.997 114.008v98.617c0.57 57.574-42.753 106.027-100.326 112.868z" />
<glyph unicode="&#xe916;" glyph-name="play" d="M450.56 248.32l239.104 179.2c13.824 10.24 13.824 30.72 0 40.96l-239.104 179.2c-16.896 12.8-40.96 0.512-40.96-20.48v-358.4c0-20.992 24.064-33.28 40.96-20.48zM512 960c-282.624 0-512-229.376-512-512s229.376-512 512-512c282.624 0 512 229.376 512 512s-229.376 512-512 512zM512 38.4c-225.792 0-409.6 183.808-409.6 409.6s183.808 409.6 409.6 409.6c225.792 0 409.6-183.808 409.6-409.6s-183.808-409.6-409.6-409.6z" />
<glyph unicode="&#xe917;" glyph-name="price" horiz-adv-x="626" d="M329.956 510.578c-129.138 33.564-170.667 68.267-170.667 122.311 0 62.009 57.458 105.244 153.6 105.244 80.782 0 121.173-30.72 135.964-79.644 6.827-22.756 25.6-39.822 49.493-39.822h17.067c37.547 0 64.284 36.978 51.2 72.249-23.893 67.129-79.644 122.88-168.391 144.498v39.253c0 47.218-38.116 85.333-85.333 85.333s-85.333-38.116-85.333-85.333v-37.547c-110.364-23.893-199.111-95.573-199.111-205.369 0-131.413 108.658-196.836 267.378-234.951 142.222-34.133 170.667-84.196 170.667-137.102 0-39.253-27.876-101.831-153.6-101.831-93.867 0-142.222 33.564-160.996 81.351-8.533 22.187-27.876 38.116-51.2 38.116h-15.929c-38.116 0-64.853-38.684-50.631-73.956 32.427-79.076 108.089-125.724 193.422-143.929v-38.116c0-47.218 38.116-85.333 85.333-85.333s85.333 38.116 85.333 85.333v36.978c110.933 21.049 199.111 85.333 199.111 201.956 0 161.564-138.24 216.747-267.378 250.311z" />
<glyph unicode="&#xe918;" glyph-name="recommended-for" horiz-adv-x="1609" d="M1097.143 521.143c121.417 0 218.697 98.011 218.697 219.429s-97.28 219.429-218.697 219.429c-121.417 0-219.429-98.011-219.429-219.429s98.011-219.429 219.429-219.429zM512 521.143c121.417 0 218.697 98.011 218.697 219.429s-97.28 219.429-218.697 219.429c-121.417 0-219.429-98.011-219.429-219.429s98.011-219.429 219.429-219.429zM512 374.857c-170.423 0-512-85.577-512-256v-109.714c0-40.229 32.914-73.143 73.143-73.143h877.714c40.229 0 73.143 32.914 73.143 73.143v109.714c0 170.423-341.577 256-512 256zM1097.143 374.857c-21.211 0-45.349-1.463-70.949-3.657 1.463-0.731 2.194-2.194 2.926-2.926 83.383-60.709 141.166-141.897 141.166-249.417v-109.714c0-25.6-5.12-50.469-13.166-73.143h378.88c40.229 0 73.143 32.914 73.143 73.143v109.714c0 170.423-341.577 256-512 256z" />
<glyph unicode="&#xe919;" glyph-name="restriction" d="M512 960c-282.624 0-512-229.376-512-512s229.376-512 512-512c282.624 0 512 229.376 512 512s-229.376 512-512 512zM102.4 448c0 226.304 183.296 409.6 409.6 409.6 94.72 0 181.76-32.256 250.88-86.528l-573.952-573.952c-54.272 69.12-86.528 156.16-86.528 250.88zM512 38.4c-94.72 0-181.76 32.256-250.88 86.528l573.952 573.952c54.272-69.12 86.528-156.16 86.528-250.88 0-226.304-183.296-409.6-409.6-409.6z" />
<glyph unicode="&#xe91a;" glyph-name="waiting" d="M511.488 960c-282.624 0-511.488-229.376-511.488-512s228.864-512 511.488-512c283.136 0 512.512 229.376 512.512 512s-229.376 512-512.512 512zM512 38.4c-226.304 0-409.6 183.296-409.6 409.6s183.296 409.6 409.6 409.6c226.304 0 409.6-183.296 409.6-409.6s-183.296-409.6-409.6-409.6zM500.736 704h-3.072c-20.48 0-36.864-16.384-36.864-36.864v-241.664c0-17.92 9.216-34.816 25.088-44.032l212.48-127.488c17.408-10.24 39.936-5.12 50.176 12.288 10.752 17.408 5.12 40.448-12.8 50.688l-198.144 117.76v232.448c0 20.48-16.384 36.864-36.864 36.864z" />
<glyph unicode="&#xe91b;" glyph-name="youtube" horiz-adv-x="1536" d="M1466.663 799.998c12.444-48 21.333-120.889 26.667-218.666l2.667-133.333-2.667-133.333c-5.333-99.555-14.223-173.333-26.667-221.333-8.889-30.222-24.889-56.889-48-80s-50.667-39.111-82.667-48c-46.222-12.444-154.666-21.333-325.332-26.667l-242.666-2.667-242.666 2.667c-170.667 5.333-279.111 14.222-325.333 26.667-31.999 8.889-59.555 24.889-82.666 48s-39.112 49.778-48 80c-12.445 48-21.333 121.778-26.667 221.333l-2.667 133.333c0 39.111 0.889 83.555 2.667 133.333 5.333 97.778 14.222 170.666 26.667 218.666 8.888 32 24.888 59.555 48 82.666s50.667 39.111 82.666 48c46.223 12.444 154.667 21.333 325.333 26.667l242.666 2.667 242.666-2.667c170.667-5.333 279.111-14.222 325.332-26.667 32-8.889 59.556-24.889 82.667-48s39.111-50.667 48-82.666zM618.665 229.333l381.332 218.666-381.332 215.999v-434.666z" />
</font>
</defs>
</svg>
